<?xml version="1.0" encoding="UTF-8"?>
<svg id="Layer_2" data-name="Layer 2" xmlns="http://www.w3.org/2000/svg" viewBox="0 0 836.78 359.42">
  <defs>
    <style>
      .cls-1 {
        fill: #bec4aa;
      }

      .cls-2 {
        fill: none;
        stroke: #636363;
        stroke-miterlimit: 10;
        stroke-width: 5px;
      }
    </style>
  </defs>
  <g id="Layer_1-2" data-name="Layer 1">
    <path class="cls-1" d="m834.41,140.21c-.25.95-.47,1.8-.86,2.99-22.56,69.5-79.33,122.57-150.3,140.34l-277.68,69.51c-32.09,8.04-65.61,8.46-97.88,1.23l-228.27-51.08c-51.93-11.63-74.17-59.25-43.93-94.07l58.81-67.72s46.57-85.47,276.56-97.64c228.78-12.11,493.82-20.96,463.55,96.44Z"/>
    <path class="cls-2" d="m815.09,105.65c-.25.95-.47,1.8-.86,2.99-22.56,69.5-79.33,122.57-150.3,140.34l-277.68,69.51c-32.09,8.04-65.61,8.46-97.88,1.23l-228.27-51.08c-51.93-11.63-74.17-59.25-43.93-94.07l58.81-67.72S121.55,21.38,351.54,9.21c228.78-12.11,493.82-20.96,463.55,96.44Z"/>
  </g>
</svg>