<?xml version="1.0" encoding="UTF-8"?>
<svg id="Layer_2" data-name="Layer 2" xmlns="http://www.w3.org/2000/svg" viewBox="0 0 254.15 342.5">
  <defs>
    <style>
      .cls-1 {
        fill: #d2dbd7;
      }

      .cls-2 {
        fill: none;
        stroke: #636363;
        stroke-miterlimit: 10;
        stroke-width: 5px;
      }
    </style>
  </defs>
  <g id="Layer_1-2" data-name="Layer 1">
    <path class="cls-1" d="m193.98,27.92c-22.86-9.9-47.75-14.18-72.65-13.15-33.48,1.39-80.56,10.88-88.76,52.27-12.95,65.43,49.65,88.2,15.11,162.09s-6.48,140.81,60.45,101.95c62.39-36.23,237.37-237.58,85.84-303.17Z"/>
    <path class="cls-2" d="m165.7,15.8C142.84,5.9,117.94,1.62,93.05,2.65,59.57,4.04,12.49,13.53,4.29,54.92c-12.95,65.43,49.65,88.2,15.11,162.09s-6.48,140.81,60.45,101.95c62.39-36.23,237.37-237.58,85.84-303.17Z"/>
  </g>
</svg>