<?xml version="1.0" encoding="UTF-8"?>
<svg id="Layer_2" data-name="Layer 2" xmlns="http://www.w3.org/2000/svg" viewBox="0 0 683.53 774.57">
  <defs>
    <style>
      .cls-1 {
        fill: #8eb6bc;
      }

      .cls-2 {
        fill: none;
        stroke: #636363;
        stroke-miterlimit: 10;
        stroke-width: 5px;
      }
    </style>
  </defs>
  <g id="Layer_1-2" data-name="Layer 1">
    <path class="cls-1" d="m616.1,417.54c-121.55,420.73,58.43,358.36-240.75,347.47-299.19-10.89-244.56-28.78-338.56-103.61,0,0-106.91-115.12,43.79-147.92,150.7-32.79,130.01-47.93,168.42-257.31C287.42,46.78,494.74,34.17,494.74,34.17c0,0,242.9-37.36,121.36,383.37Z"/>
    <path class="cls-2" d="m646.98,386.72c-121.55,420.73,58.43,358.36-240.75,347.47-299.19-10.89-244.56-28.78-338.56-103.61,0,0-106.91-115.12,43.79-147.92,150.7-32.79,130.01-47.93,168.42-257.31C318.3,15.96,525.62,3.35,525.62,3.35c0,0,242.9-37.36,121.36,383.37Z"/>
  </g>
</svg>