<?xml version="1.0" encoding="UTF-8"?>
<svg id="Layer_2" data-name="Layer 2" xmlns="http://www.w3.org/2000/svg" viewBox="0 0 801.9 578.11">
  <defs>
    <style>
      .cls-1 {
        fill: #d2bca9;
      }

      .cls-2 {
        fill: none;
        stroke: #636363;
        stroke-miterlimit: 10;
        stroke-width: 5px;
      }
    </style>
  </defs>
  <g id="Layer_1-2" data-name="Layer 1">
    <path class="cls-1" d="m582.7,421.28c-172.22,9.9-240.37,54.95-261.73,73.9-9.33,8.27-19.25,15.84-29.76,22.56-224.07,143.3-196.31,6.13-247.57-147.66-30.45-91.36,5.49-176.02,41.41-231.37,31.75-48.92,80.44-84.59,136.79-99.64,54.54-14.56,128.45-20.52,199.39,18.05,136.23,74.05,222,8.46,327.96,89.19,105.95,80.72,52.97,262.36-166.5,274.97Z"/>
    <path class="cls-2" d="m553.02,395.88c-172.22,9.9-240.37,54.95-261.73,73.9-9.33,8.27-19.25,15.84-29.76,22.56-224.07,143.3-196.31,6.13-247.57-147.66-30.45-91.36,5.49-176.02,41.41-231.37C87.13,64.38,135.82,28.71,192.17,13.66,246.7-.9,320.61-6.85,391.56,31.72c136.23,74.05,222,8.46,327.96,89.19,105.95,80.72,52.97,262.36-166.5,274.97Z"/>
  </g>
</svg>