<?xml version="1.0" encoding="UTF-8"?>
<svg id="Layer_2" data-name="Layer 2" xmlns="http://www.w3.org/2000/svg" viewBox="0 0 859.42 619.53">
  <defs>
    <style>
      .cls-1 {
        fill: #d2bca9;
      }

      .cls-2 {
        fill: none;
        stroke: #636363;
        stroke-miterlimit: 10;
        stroke-width: 5px;
      }
    </style>
  </defs>
  <g id="Layer_1-2" data-name="Layer 1">
    <path class="cls-1" d="m624.45,451.41c-184.62,10.61-257.67,58.91-280.56,79.22-10,8.87-20.64,16.98-31.9,24.18-240.19,153.61-210.44,6.57-265.39-158.29-32.65-97.93,5.88-188.69,44.39-248.02,34.04-52.44,86.23-90.68,146.64-106.81,58.46-15.61,137.69-22,213.74,19.35,146.03,79.38,237.97,9.07,351.56,95.61,113.57,86.53,56.78,281.24-178.48,294.76Z"/>
    <path class="cls-2" d="m592.63,424.18c-184.62,10.61-257.67,58.91-280.56,79.22-10,8.87-20.64,16.98-31.9,24.18-240.19,153.61-210.44,6.57-265.39-158.29-32.65-97.93,5.88-188.69,44.39-248.02C93.22,68.84,145.41,30.6,205.81,14.47c58.46-15.61,137.69-22,213.74,19.35,146.03,79.38,237.97,9.07,351.56,95.61,113.57,86.53,56.78,281.24-178.48,294.76Z"/>
  </g>
</svg>