<?xml version="1.0" encoding="UTF-8"?>
<svg id="Layer_2" data-name="Layer 2" xmlns="http://www.w3.org/2000/svg" viewBox="0 0 421.98 304.55">
  <defs>
    <style>
      .cls-1 {
        fill: #d2bca9;
      }

      .cls-2 {
        fill: none;
        stroke: #636363;
        stroke-miterlimit: 10;
        stroke-width: 5px;
      }
    </style>
  </defs>
  <g id="Layer_1-2" data-name="Layer 1">
    <path class="cls-1" d="m306.96,222.25c-90.37,5.19-126.13,28.84-137.34,38.78-4.89,4.34-10.1,8.31-15.61,11.84-117.58,75.19-103.01,3.21-129.91-77.48-15.98-47.94,2.88-92.37,21.73-121.41,16.66-25.67,42.21-44.39,71.78-52.29s67.4-10.77,104.63,9.47c71.49,38.86,116.49,4.44,172.1,46.8,55.6,42.36,27.8,137.67-87.37,144.29Z"/>
    <path class="cls-2" d="m291.38,208.92c-90.37,5.19-126.13,28.84-137.34,38.78-4.89,4.34-10.1,8.31-15.61,11.84-117.58,75.19-103.01,3.21-129.91-77.48-15.98-47.94,2.88-92.37,21.73-121.41,16.66-25.67,42.21-44.39,71.78-52.29,28.62-7.64,67.4-10.77,104.63,9.47,71.49,38.86,116.49,4.44,172.1,46.8,55.6,42.36,27.8,137.67-87.37,144.29Z"/>
  </g>
</svg>