<?xml version="1.0" encoding="UTF-8"?>
<svg id="Layer_2" data-name="Layer 2" xmlns="http://www.w3.org/2000/svg" viewBox="0 0 359.87 407.64">
  <defs>
    <style>
      .cls-1 {
        fill: #8eb6bc;
      }

      .cls-2 {
        fill: none;
        stroke: #636363;
        stroke-miterlimit: 10;
        stroke-width: 5px;
      }
    </style>
  </defs>
  <g id="Layer_1-2" data-name="Layer 1">
    <path class="cls-1" d="m323.29,220.29c-63.78,220.78,30.66,188.05-126.33,182.33-157-5.71-128.33-15.1-177.66-54.37,0,0-56.1-60.41,22.98-77.62,79.08-17.21,68.22-25.15,88.38-135.02C150.82,25.74,259.61,19.12,259.61,19.12c0,0,127.46-19.6,63.68,201.17Z"/>
    <path class="cls-2" d="m339.5,204.12c-63.78,220.78,30.66,188.05-126.33,182.33-157-5.71-128.33-15.1-177.66-54.37,0,0-56.1-60.41,22.98-77.62,79.08-17.21,68.22-25.15,88.38-135.02C167.03,9.56,275.82,2.95,275.82,2.95c0,0,127.46-19.6,63.68,201.17Z"/>
  </g>
</svg>