<?xml version="1.0" encoding="UTF-8"?>
<svg id="Layer_2" data-name="Layer 2" xmlns="http://www.w3.org/2000/svg" viewBox="0 0 732.53 830.13">
  <defs>
    <style>
      .cls-1 {
        fill: #8eb6bc;
      }

      .cls-2 {
        fill: none;
        stroke: #636363;
        stroke-miterlimit: 10;
        stroke-width: 5px;
      }
    </style>
  </defs>
  <g id="Layer_1-2" data-name="Layer 1">
    <path class="cls-1" d="m660.43,447.41c-130.3,451,62.63,384.15-258.07,372.47-320.72-11.67-262.16-30.85-362.92-111.07,0,0-114.6-123.4,46.94-158.56,161.54-35.15,139.37-51.38,180.54-275.83C308.1,49.97,530.33,36.45,530.33,36.45c0,0,260.38-40.05,130.09,410.96Z"/>
    <path class="cls-2" d="m693.53,414.37c-130.3,451,62.63,384.15-258.07,372.47-320.72-11.67-262.16-30.85-362.92-111.07,0,0-114.6-123.4,46.94-158.56,161.54-35.15,139.37-51.38,180.54-275.83C341.2,16.93,563.44,3.41,563.44,3.41c0,0,260.38-40.05,130.09,410.96Z"/>
  </g>
</svg>