<?xml version="1.0" encoding="UTF-8"?>
<svg id="Layer_2" data-name="Layer 2" xmlns="http://www.w3.org/2000/svg" viewBox="0 0 440.29 189.79">
  <defs>
    <style>
      .cls-1 {
        fill: #bec4aa;
      }

      .cls-2 {
        fill: none;
        stroke: #636363;
        stroke-miterlimit: 10;
        stroke-width: 5px;
      }
    </style>
  </defs>
  <g id="Layer_1-2" data-name="Layer 1">
    <path class="cls-1" d="m439.04,74.76c-.13.5-.25.95-.45,1.57-11.84,36.47-41.63,64.32-78.87,73.64l-145.71,36.47c-16.84,4.22-34.43,4.44-51.36.65l-119.78-26.8c-27.25-6.1-38.92-31.09-23.05-49.36l30.86-35.54s24.44-44.85,145.12-51.24c120.05-6.35,259.13-11,243.24,50.6Z"/>
    <path class="cls-2" d="m428.9,56.63c-.13.5-.25.95-.45,1.57-11.84,36.47-41.63,64.32-78.87,73.64l-145.71,36.47c-16.84,4.22-34.43,4.44-51.36.65l-119.78-26.8c-27.25-6.1-38.92-31.09-23.05-49.36l30.86-35.54S64.97,12.41,185.66,6.02C305.71-.33,444.79-4.98,428.9,56.63Z"/>
  </g>
</svg>