<?xml version="1.0" encoding="UTF-8"?>
<svg id="Layer_2" data-name="Layer 2" xmlns="http://www.w3.org/2000/svg" viewBox="0 0 532.59 229.28">
  <defs>
    <style>
      .cls-1 {
        fill: #bec4aa;
      }

      .cls-2 {
        fill: none;
        stroke: #636363;
        stroke-miterlimit: 10;
        stroke-width: 5px;
      }
    </style>
  </defs>
  <g id="Layer_1-2" data-name="Layer 1">
    <path class="cls-1" d="m531.08,90c-.16.61-.3,1.15-.55,1.9-14.33,44.16-50.4,77.88-95.5,89.17l-176.43,44.17c-20.39,5.11-41.69,5.38-62.19.78l-145.04-32.46c-33-7.39-47.13-37.65-27.91-59.77l37.37-43.03s29.59-54.31,175.72-62.04c145.37-7.69,313.77-13.32,294.53,61.27Z"/>
    <path class="cls-2" d="m518.81,68.04c-.16.61-.3,1.15-.55,1.9-14.33,44.16-50.4,77.88-95.5,89.17l-176.43,44.17c-20.39,5.11-41.69,5.38-62.19.78l-145.04-32.46c-33-7.39-47.13-37.65-27.91-59.77l37.37-43.03S78.14,14.5,224.28,6.76c145.37-7.69,313.77-13.32,294.53,61.27Z"/>
  </g>
</svg>