<?xml version="1.0" encoding="UTF-8"?>
<svg id="Layer_2" data-name="Layer 2" xmlns="http://www.w3.org/2000/svg" viewBox="0 0 134.55 180.91">
  <defs>
    <style>
      .cls-1 {
        fill: #d2dbd7;
      }

      .cls-2 {
        fill: none;
        stroke: #636363;
        stroke-miterlimit: 10;
        stroke-width: 5px;
      }
    </style>
  </defs>
  <g id="Layer_1-2" data-name="Layer 1">
    <path class="cls-1" d="m102.98,15.84c-12-5.19-25.06-7.44-38.12-6.9-17.57.73-42.28,5.71-46.58,27.43-6.8,34.33,26.06,46.28,7.93,85.06-18.13,38.77-3.4,73.89,31.72,53.5,32.74-19.01,124.56-124.67,45.05-159.09Z"/>
    <path class="cls-2" d="m88.14,9.48c-12-5.19-25.06-7.44-38.12-6.9C32.45,3.31,7.74,8.29,3.44,30.01c-6.8,34.33,26.06,46.28,7.93,85.06-18.13,38.77-3.4,73.89,31.72,53.5,32.74-19.01,124.56-124.67,45.05-159.09Z"/>
  </g>
</svg>