<?xml version="1.0" encoding="UTF-8"?>
<svg id="Layer_2" data-name="Layer 2" xmlns="http://www.w3.org/2000/svg" viewBox="0 0 261.14 366.97">
  <defs>
    <style>
      .cls-1 {
        fill: #d2dbd7;
      }

      .cls-2 {
        fill: none;
        stroke: #636363;
        stroke-miterlimit: 10;
        stroke-width: 5px;
      }
    </style>
  </defs>
  <g id="Layer_1-2" data-name="Layer 1">
    <path class="cls-1" d="m196.64,29.75c-24.51-10.61-51.19-15.2-77.87-14.09-35.89,1.49-86.36,11.66-95.15,56.03-13.89,70.14,53.23,94.55,16.2,173.75-37.03,79.21-6.94,150.95,64.8,109.29,66.88-38.84,254.45-254.68,92.02-324.98Z"/>
    <path class="cls-2" d="m177.44,16.75C152.93,6.15,126.25,1.56,99.57,2.66,63.68,4.15,13.21,14.32,4.42,58.69c-13.89,70.14,53.23,94.55,16.2,173.75-37.03,79.21-6.94,150.95,64.8,109.29,66.88-38.84,254.45-254.68,92.02-324.98Z"/>
  </g>
</svg>